<svg height="495pt" viewBox="-7 0 495 495.648" width="495pt" xmlns="http://www.w3.org/2000/svg"><path d="m304.324219 64h-128v48h128zm-16 32h-96v-16h96zm0 0"/><path d="m144.324219 136h88v16h-88zm0 0"/><path d="m248.324219 136h88v16h-88zm0 0"/><path d="m144.324219 200h88v16h-88zm0 0"/><path d="m320.324219 200h16v16h-16zm0 0"/><path d="m248.324219 200h56v16h-56zm0 0"/><path d="m144.324219 168h192v16h-192zm0 0"/><path d="m480.324219 384v-384h-480v384h163.632812c3.582031 3.121094 7.765625 5.433594 12.398438 6.695312l-29.015625 96.746094 43.40625-21.707031 29.914062 29.914063 17.953125-71.824219c.574219.03125 1.125.175781 1.710938.175781.582031 0 1.136719-.144531 1.710937-.175781l17.953125 71.824219 29.910157-29.914063 43.410156 21.707031-29.023438-96.746094c4.628906-1.261718 8.824219-3.574218 12.40625-6.695312zm-171.640625-78.480469c-3.144532-9.535156-8.246094-18.167969-14.808594-25.488281l2.199219.046875c5.691406.121094 10.753906 3.082031 13.539062 7.914063 2.789063 4.832031 2.824219 10.695312.085938 15.679687zm-68.359375 78.480469c-30.878907 0-56-25.121094-56-56s25.121093-56 56-56c30.878906 0 56 25.121094 56 56s-25.121094 56-56 56zm47.960937-2.457031-.050781 2.199219c-.117187 5.691406-3.078125 10.753906-7.910156 13.539062-4.832031 2.78125-10.703125 2.832031-15.679688.085938l-1.839843-1.007813c9.535156-3.152344 18.167968-8.253906 25.480468-14.816406zm-70.441406 14.816406-1.839844 1.007813c-4.992187 2.738281-10.855468 2.695312-15.679687-.078126-4.832031-2.792968-7.792969-7.855468-7.914063-13.546874l-.046875-2.199219c7.3125 6.5625 15.945313 11.664062 25.480469 14.816406zm-45.878906-90.839844-1.007813-1.839843c-2.738281-4.984376-2.703125-10.847657.078125-15.679688 2.792969-4.832031 7.855469-7.792969 13.542969-7.910156l2.203125-.050782c-6.5625 7.3125-11.664062 15.945313-14.816406 25.480469zm20.398437-31.0625.046875-2.199219c.121094-5.691406 3.082032-10.753906 7.914063-13.539062 4.832031-2.789062 10.695312-2.832031 15.679687-.085938l1.839844 1.007813c-9.535156 3.152344-18.167969 8.253906-25.480469 14.816406zm33.28125-16.945312 1.054688-1.742188c2.953125-4.867187 8.039062-7.769531 13.625-7.769531 5.582031 0 10.671875 2.902344 13.625 7.769531l1.054687 1.742188c-4.734375-.984375-9.648437-1.511719-14.679687-1.511719s-9.945313.527344-14.679688 1.511719zm37.160157 2.128906 1.839843-1.007813c4.976563-2.746093 10.847657-2.703124 15.679688.078126 4.832031 2.792968 7.792969 7.855468 7.910156 13.546874l.050781 2.199219c-7.3125-6.5625-15.945312-11.664062-25.480468-14.816406zm40.542968 5.335937c-2.015625-8.433593-7.34375-15.679687-15.023437-20.121093-7.679688-4.429688-16.617188-5.421875-24.9375-2.953125-5.957031-6.285156-14.199219-9.902344-23.0625-9.902344s-17.105469 3.617188-23.0625 9.910156c-8.3125-2.460937-17.25-1.484375-24.9375 2.953125-7.679688 4.433594-13.007813 11.679688-15.023438 20.113281-8.433593 2.015626-15.679687 7.34375-20.121093 15.023438-4.433594 7.679688-5.421876 16.625-2.953126 24.9375-6.285156 5.957031-9.902343 14.199219-9.902343 23.0625 0 2.761719.464843 5.414062 1.136719 8h-49.777344c-3.527344-24.472656-22.886719-43.839844-47.359375-47.359375v-193.28125c24.472656-3.527344 43.839843-22.886719 47.359375-47.359375h289.28125c3.527344 24.472656 22.886718 43.839844 47.359375 47.359375v193.28125c-24.472657 3.527344-43.839844 22.886719-47.359375 47.359375h-49.777344c.671875-2.585938 1.136719-5.238281 1.136719-8 0-8.863281-3.617188-17.105469-9.914063-23.0625 2.472656-8.3125 1.488282-17.25-2.949218-24.9375-4.433594-7.679688-11.679688-13.007812-20.113282-15.023438zm-255.023437 39.832032c15.648437 3.191406 28 15.542968 31.191406 31.191406h-31.191406zm0-225.617188v-31.191406h31.191406c-3.191406 15.648438-15.542969 28-31.191406 31.191406zm384 0c-15.648438-3.191406-28-15.542968-31.191407-31.191406h31.191407zm0 225.617188v31.191406h-31.191407c3.191407-15.648438 15.542969-28 31.191407-31.191406zm-416-288.808594h448v352h-137.726563c1.359375-5.246094 1.398438-10.71875 0-16h121.726563v-320h-416v320h121.726562c-1.398437 5.28125-1.359375 10.753906 0 16h-137.726562zm144 312c0-5.585938 2.902343-10.671875 7.769531-13.625l1.742188-1.054688c-.984376 4.734376-1.511719 9.648438-1.511719 14.679688s.527343 9.945312 1.511719 14.679688l-1.742188-1.054688c-4.867188-2.953125-7.769531-8.039062-7.769531-13.625zm10.71875 40c-2.789063-4.832031-2.824219-10.695312-.085938-15.679688l1.007813-1.839843c3.144531 9.535156 8.246094 18.167969 14.808594 25.488281l-2.203126-.046875c-5.679687-.128906-10.742187-3.089844-13.527343-7.921875zm40.945312 96.351562-18.089843-18.085937-20.589844 10.292969 14.582031-48.621094c1.394531 1.160156 2.824219 2.269531 4.433594 3.199219 7.679687 4.421875 16.609375 5.414062 24.9375 2.953125 1.8125 1.910156 3.886719 3.484375 6.078125 4.878906zm14.710938-64.121093-1.054688-1.742188c4.734375.984375 9.648438 1.511719 14.679688 1.511719s9.945312-.527344 14.679687-1.511719l-1.054687 1.742188c-2.953125 4.867187-8.042969 7.769531-13.625 7.769531-5.585938 0-10.671875-2.902344-13.625-7.769531zm60.046875 46.035156-18.085938 18.085937-11.34375-45.382812c2.183594-1.394531 4.261719-2.960938 6.078125-4.878906 8.3125 2.460937 17.25 1.484375 24.9375-2.953125 1.601563-.929688 3.039063-2.039063 4.433594-3.191407l14.582031 48.621094zm22.867187-78.265625c-2.792969 4.832031-7.855469 7.792969-13.546875 7.910156l-2.199218.050782c6.5625-7.320313 11.664062-15.945313 14.808593-25.488282l1.007813 1.839844c2.746094 4.992188 2.710937 10.855469-.070313 15.6875zm1.199219-25.320312c.984375-4.734376 1.511719-9.648438 1.511719-14.679688s-.527344-9.945312-1.511719-14.679688l1.742188 1.054688c4.867187 2.953125 7.769531 8.039062 7.769531 13.625s-2.902344 10.671875-7.769531 13.625zm0 0"/><path d="m240.324219 304c4.40625 0 8 3.59375 8 8h16c0-10.414062-6.710938-19.214844-16-22.527344v-9.472656h-16v9.472656c-9.289063 3.3125-16 12.113282-16 22.527344 0 13.230469 10.769531 24 24 24 4.40625 0 8 3.59375 8 8s-3.59375 8-8 8c-4.410157 0-8-3.59375-8-8h-16c0 10.414062 6.710937 19.214844 16 22.527344v9.472656h16v-9.472656c9.289062-3.3125 16-12.113282 16-22.527344 0-13.230469-10.769531-24-24-24-4.410157 0-8-3.59375-8-8s3.589843-8 8-8zm0 0"/></svg>