<?xml version="1.0" encoding="utf-8"?>
<!-- Svg Vector Icons : http://www.onlinewebfonts.com/icon -->
<!DOCTYPE svg PUBLIC "-//W3C//DTD SVG 1.1//EN" "http://www.w3.org/Graphics/SVG/1.1/DTD/svg11.dtd">
<svg version="1.1" xmlns="http://www.w3.org/2000/svg" xmlns:xlink="http://www.w3.org/1999/xlink" x="0px" y="0px" viewBox="0 0 1000 1000" enable-background="new 0 0 1000 1000" xml:space="preserve">
<metadata> Svg Vector Icons : http://www.onlinewebfonts.com/icon </metadata>
<g><g transform="matrix(1 0 0 -1 0 1920)"><path d="M829.7,1715.5c-17.3,13.2-30.4,28.2-39.4,45.1c-8.9,16.9-13.4,34.3-13.4,52.3c0,18,4.5,35.4,13.4,52.1c8.9,16.8,22,31.7,39.4,44.9c6.9-5.2,13.2-10.9,19-16.9c5.8-6,10.8-12.3,15-18.8c4.3-6.5,7.8-13.1,10.5-19.8c2.7-6.7,4.8-13.6,6.2-20.6s2.1-14.1,2.1-21.2c0-17.9-4.5-35.2-13.4-52.1C860.1,1743.7,847,1728.7,829.7,1715.5z M46.7,1342.1c-5.8,0-10.6,2-14.6,6c-4,4-6,8.9-6,14.6s2,10.6,6,14.6c4,4,8.9,6,14.6,6h20.6V1507H46.7c-5.8,0-10.6,2-14.6,6c-4,4-6,8.9-6,14.6s2,10.6,6,14.6c4,4,8.9,6,14.6,6h20.6v123.6H46.7c-5.8,0-10.6,2-14.6,6c-4,4-6,8.9-6,14.6c0,5.8,2,10.6,6,14.6c4,4,8.9,6,14.6,6h20.6v123.6H46.7c-5.8,0-10.6,2-14.6,6c-4,4-6,8.9-6,14.6c0,5.8,2,10.6,6,14.6c4,4,8.9,6,14.6,6h412.1c5.8,0,10.6-2,14.6-6c4-4,6-8.9,6-14.6c0-5.8-2-10.6-6-14.6c-4-4-8.9-6-14.6-6h-20.6V1713h20.6c5.8,0,10.6-2,14.6-6c4-4,6-8.9,6-14.6c0-5.8-2-10.6-6-14.6c-4-4-8.9-6-14.6-6h-20.6v-123.6h20.6c5.8,0,10.6-2,14.6-6c4-4,6-8.9,6-14.6s-2-10.6-6-14.6c-4-4-8.9-6-14.6-6h-20.6v-123.6h20.6c5.8,0,10.6-2,14.6-6c4-4,6-8.9,6-14.6s-2-10.6-6-14.6c-4-4-8.9-6-14.6-6H46.7z M809.1,1630.6c-34.1,0-63.2,12.1-87.4,36.3c-24.2,24.2-36.3,53.3-36.3,87.4c34.1,0,63.2-12.1,87.4-36.3C797,1693.8,809.1,1664.7,809.1,1630.6z M850.3,1630.6c0,34.1,12.1,63.2,36.3,87.4c24.2,24.2,53.3,36.3,87.4,36.3c0-34.1-12.1-63.2-36.3-87.4C913.5,1642.7,884.4,1630.6,850.3,1630.6z M809.1,1507c-34.1,0-63.2,12.1-87.4,36.3c-24.2,24.2-36.3,53.3-36.3,87.4c34.1,0,63.2-12.1,87.4-36.3C797,1570.1,809.1,1541,809.1,1507z M850.3,1507c0,34.1,12.1,63.2,36.3,87.4c24.2,24.2,53.3,36.3,87.4,36.3c0-34.1-12.1-63.2-36.3-87.4S884.4,1507,850.3,1507z M809.1,1383.3c-34.1,0-63.2,12.1-87.4,36.3c-24.2,24.2-36.3,53.3-36.3,87.4c34.1,0,63.2-12.1,87.4-36.3C797,1446.5,809.1,1417.4,809.1,1383.3z M850.3,1383.3c0,34.1,12.1,63.2,36.3,87.4c24.2,24.2,53.3,36.3,87.4,36.3c0-34.1-12.1-63.2-36.3-87.4C913.5,1395.4,884.4,1383.3,850.3,1383.3z M829.7,1220.5c-5.8,0-10.6,2-14.6,6c-4,4-6,8.9-6,14.6v140.9c11-1.1,16.9-1.6,17.7-1.6c4.4,0,12.2,0.8,23.5,2.5v-141.8c0-5.8-2-10.6-6-14.6C840.3,1222.5,835.5,1220.5,829.7,1220.5z M417.6,1136.1c-4.4,0-7.9,1.2-10.5,3.7c-2.6,2.5-3.9,5.5-3.9,9.1c0,2.2,0.4,4.4,1.2,6.6l47,126.1c2.2,5.2,6,9.8,11.3,13.6s10.9,5.8,16.7,5.8h164.8c5.8,0,11.3-1.9,16.7-5.8s9.1-8.4,11.3-13.6l47-126.1c0.8-2.2,1.2-4.4,1.2-6.6c0-3.6-1.3-6.6-3.9-9.1s-6.1-3.7-10.5-3.7H417.6z M252.7,930c-4.4,0-7.9,1.2-10.5,3.7c-2.6,2.5-3.9,5.5-3.9,9.1c0,2.2,0.4,4.4,1.2,6.6l47,126.1c2.2,5.2,6,9.8,11.3,13.6c5.4,3.8,10.9,5.8,16.7,5.8h164.8c5.8,0,11.3-1.9,16.7-5.8c5.4-3.8,9.1-8.4,11.3-13.6l47-126.1c0.8-2.2,1.2-4.4,1.2-6.6c0-3.6-1.3-6.6-3.9-9.1s-6.1-3.7-10.5-3.7H252.7z M623.6,930c-4.4,0-7.9,1.2-10.5,3.7s-3.9,5.5-3.9,9.1c0,2.2,0.4,4.4,1.2,6.6l47,126.1c2.2,5.2,6,9.8,11.3,13.6c5.4,3.8,10.9,5.8,16.7,5.8h164.8c3.8,0,7.6-0.9,11.3-2.7s7.1-4.1,10.1-7c3-2.9,5.2-6.1,6.6-9.7l47-126.1c0.8-2.2,1.2-4.4,1.2-6.6c0-3.6-1.3-6.6-3.9-9.1s-6.1-3.7-10.5-3.7H623.6z"/></g></g>
</svg>