<?xml version="1.0" encoding="utf-8"?>
<!-- Svg Vector Icons : http://www.onlinewebfonts.com/icon -->
<!DOCTYPE svg PUBLIC "-//W3C//DTD SVG 1.1//EN" "http://www.w3.org/Graphics/SVG/1.1/DTD/svg11.dtd">
<svg version="1.1" xmlns="http://www.w3.org/2000/svg" xmlns:xlink="http://www.w3.org/1999/xlink" x="0px" y="0px" viewBox="0 0 1000 1000" enable-background="new 0 0 1000 1000" xml:space="preserve">
<metadata> Svg Vector Icons : http://www.onlinewebfonts.com/icon </metadata>
<g><g transform="translate(0.000000,511.000000) scale(0.100000,-0.100000)"><path d="M4407.8,4832.2c-34.4-7.6-68.9-19.1-74.6-26.8c-26.8-24.9,1.9-1415.6,44-2196.1l11.5-223.8l-72.7-13.4c-42.1-7.6-97.6-24.9-126.3-38.3c-116.7-59.3-340.5-376.8-761.4-1078.9c-130.1-216.2-396-658.1-593-985.2c-350.1-579.6-589.2-992.8-889.5-1530.4c-220-396-675.3-1153.5-1262.6-2104.3c-286.9-464.9-535.6-870.4-552.9-902.9c-57.4-112.9-32.5-198.9,67-233.4c97.6-34.4,133.9-26.8,325.2,67c195.1,95.7,417,160.7,545.2,160.7c116.7,0,298.4-42.1,648.5-151.1c397.9-122.4,560.5-155,778.6-155c220,0,330.9,28.7,589.2,149.2c262.1,124.3,375,156.9,583.5,170.3c231.5,15.3,405.6-23,830.2-176c529.9-189.4,535.6-191.3,805.4-189.4c231.5,0,246.8,1.9,468.7,82.3c340.5,120.5,466.8,154.9,573.9,154.9c137.7,0,401.7-47.8,696.3-124.3c141.6-36.4,288.9-67,327.1-67c76.5,0,231.5,49.7,535.6,172.2c237.2,95.6,237.2,95.6,648.5-21c594.9-166.4,635.1-172.2,872.3-122.4c183.6,38.3,336.7,97.5,411.3,160.7l63.1,51.6l-34.4,105.2c-19.1,55.5-95.6,237.2-168.3,399.8C9527-3462.5,8474.8-1356.3,8119-677.2l-265.9,506.9l-97.5,53.6c-107.1,57.4-248.7,82.3-357.7,63.1c-95.7-19.1-243-172.2-453.4-472.5c-91.8-130.1-179.8-254.4-193.2-275.5c-26.8-36.4-30.6-32.5-93.7,67c-107.1,166.4-287,506.9-723.1,1358.2c-508.9,996.7-598.8,1134.4-1048.3,1587.8l-218.1,220l11.5,306.1c13.4,365.4,21,407.5,78.4,422.8c23,5.7,418.9,15.3,878.1,22.9l837.9,13.4l57.4,65c55.5,61.2,57.4,72.7,47.8,185.6c-7.7,101.4-30.6,168.3-137.7,380.7L6315.1,4088l114.8,267.8c143.5,327.1,145.4,352,36.3,382.6c-141.6,38.3-468.7,5.7-1377.4-133.9c-206.6-32.5-380.7-59.3-386.4-59.3c-5.7,0-11.5,67-15.3,149.2l-5.7,147.3l-105.2,3.8C4518.8,4847.5,4442.2,4841.7,4407.8,4832.2z M6240.4,4505.1c0-11.5-30.6-118.6-68.9-237.2l-67-216.2l126.3-252.5c91.8-183.6,124.3-269.7,120.5-311.8l-5.7-61.2l-49.7,76.5c-26.8,42.1-118.6,195.1-204.7,340.5l-153,264l-55.5-47.8l-53.6-47.8l156.9-315.6l158.8-317.6h-101.4h-99.5l-95.6,204.7c-51.7,110.9-118.6,241-147.3,285c-49.7,78.4-53.6,82.3-112.9,65c-34.4-9.6-70.8-26.8-80.3-36.3c-9.6-9.6,40.2-128.2,120.5-286.9c76.5-149.2,135.8-275.5,130.1-279.3c-9.6-9.6-265.9,23-279.3,38.3c-7.7,5.7-51.7,99.5-99.5,206.6c-49.8,109-99.5,197-116.7,200.9c-15.3,1.9-51.6-11.5-78.4-32.5l-47.8-38.3l65-166.4c70.8-172.2,67-197-19.1-198.9c-72.7,0-114.8,45.9-187.5,200.9l-74.6,160.7l-57.4-21c-32.5-9.6-63.1-26.8-68.9-36.3c-5.7-9.6,13.4-74.6,40.2-143.5c57.4-141.6,49.7-162.6-49.7-166.4l-65-3.8l-11.5,220c-7.6,120.5-13.4,346.3-15.3,501.2l-1.9,279.3l63.1,21c103.3,34.4,623.6,103.3,1151.6,153C6160.1,4528,6240.4,4528,6240.4,4505.1z M4650.8,2056.4c375-413.2,1235.8-1849.9,1859.4-3102.8C6690-1408,6755-1564.9,6734-1585.9c-5.7-5.7-78.4,28.7-164.5,74.6c-258.3,143.5-461,241.1-499.3,241.1c-21,0-168.3-137.7-373-353.9c-187.5-193.2-355.8-357.7-376.9-363.5c-57.4-19.1-101.4,17.2-505,413.2c-204.7,199-378.8,361.6-388.3,361.6c-21,0-174.1-107.1-596.9-424.7c-162.6-120.5-355.8-260.2-428.5-309.9l-133.9-88l-55.5,51.7c-91.8,86.1-761.4,832.1-772.9,858.9c-11.5,28.7,74.6,181.7,518.4,925.9C3832,1268.3,4425,2154,4534.1,2154C4549.4,2154,4602.9,2110,4650.8,2056.4z M7642.7-470.6c168.3-239.1,625.5-1092.3,790.1-1474.9c68.9-160.7,70.8-168.4,42.1-229.6c-38.3-80.4-126.3-185.6-155-185.6c-13.4,0-109,74.6-214.3,164.5c-105.2,91.8-223.8,187.5-264,214.3c-89.9,59.3-110.9,51.7-285-109l-128.2-116.7l-218.1,424.7c-350.1,679.1-332.9,635.1-296.5,707.8c89.9,189.4,541.4,723.1,610.2,723.1C7545.1-352,7592.9-401.8,7642.7-470.6z M2680.4-1691.1c311.8-346.3,455.3-485.9,531.8-520.3c51.6-24.9,72.7-11.5,541.4,319.5c459.1,327.1,625.6,436.2,646.6,428.5c9.6-3.8,93.7-93.7,187.5-198.9c319.5-361.6,524.2-537.6,646.6-558.6c97.6-15.3,204.7,67,541.4,411.3l290.8,296.5l130.1-51.7c70.8-26.8,258.3-116.7,417-198.9c237.2-122.4,294.6-160.7,336.7-223.8c55.5-82.3,227.6-409.4,227.6-432.4c0-7.6-118.6,42.1-262.1,109.1c-329,153-396,176-436.2,141.6c-19.1-15.3-28.7-47.8-24.9-82.3c5.7-55.5,19.1-63.1,350.1-204.7c495.5-210.4,459.1-185.6,512.7-357.7c24.9-82.3,44-151.1,42.1-155c-1.9-1.9-162.6,72.7-355.8,168.3c-191.3,93.8-363.5,172.2-382.6,172.2c-53.6,0-78.4-130.1-30.6-166.4c11.5-9.6,130.1-63.1,262.1-120.5c390.3-166.4,566.2-260.2,619.8-329c55.5-74.6,91.8-162.6,72.7-176c-7.7-3.8-166.4,55.5-352,132c-185.6,78.4-382.6,155-434.2,170.3c-91.8,26.8-97.6,26.8-116.7-7.7c-26.8-51.7-23-126.3,7.7-158.8c24.9-23,401.7-183.7,834.1-353.9l143.5-55.5l61.2-151.1c32.5-82.3,57.4-153,53.6-156.9c-1.9-3.8-185.6,84.2-403.6,193.2c-478.3,239.1-654.2,311.8-682.9,283.1c-30.6-30.6-26.8-176,5.7-195.1c15.3-9.6,214.3-105.2,441.9-214.3c227.7-109,419-208.5,426.6-220c17.2-28.7-99.5-49.7-275.5-51.7c-122.4,0-174.1,11.5-353.9,80.4c-445.7,168.3-560.5,164.5-1159.3-38.3c-237.2-80.4-464.9-151.1-506.9-158.8c-67-9.6-130.1,9.6-468.7,141.6c-652.3,256.3-874.2,311.8-1103.8,273.6c-70.8-13.4-317.6-86.1-549-164.5c-455.3-153-658.1-193.2-870.4-172.2c-166.4,15.3-363.5,70.8-526.1,143.5c-229.6,105.2-277.4,114.8-629.4,143.5c-189.4,15.3-346.2,32.5-352,36.3c-11.5,11.5,868.5,1480.6,1186.1,1981.9c275.5,434.2,388.3,593,424.7,593C2360.9-1346.8,2510.1-1501.7,2680.4-1691.1z M7837.8-2209.5c118.6-122.4,394.1-361.5,455.3-392.2c51.7-28.7,53.6-26.8,176,101.4c67,70.8,126.2,124.3,130.1,120.5c9.6-11.5,242.9-499.3,242.9-508.8c0-1.9-30.6,7.6-67,22.9c-91.8,38.3-114.8,34.5-139.6-21c-26.8-59.3-9.6-76.5,155-170.3c67-36.3,133.9-82.3,149.2-99.5c28.7-34.4,149.2-300.3,141.6-309.9c-1.9-3.8-101.4,59.3-221.9,139.6c-118.6,78.4-227.7,143.5-241.1,143.5c-32.5,0-91.8-120.5-76.5-156.9c3.8-15.3,110.9-86.1,235.3-158.8c361.6-208.5,432.3-260.2,491.6-371.1c44-80.3,47.8-97.6,23-97.6c-15.3,0-187.5,86.1-378.8,191.3S8549.4-3585,8532.2-3585c-15.3,0-34.4-19.1-42.1-44c-28.7-107.1-24.9-110.9,290.8-285c164.5-89.9,338.6-193.2,384.5-225.7c72.7-53.6,80.3-65,51.6-80.4c-61.2-34.4-189.4-1.9-451.5,111c-242.9,105.2-269.7,112.9-434.2,118.6l-174.1,7.7l-336.7,814.9l-336.7,816.9l114.8,110.9c63.1,59.3,126.2,109,139.6,109S7797.6-2167.5,7837.8-2209.5z"/><path d="M3841.6,925.8c-34.4-55.5-191.3-321.4-346.3-589.2c-155-267.8-298.4-514.6-319.5-549l-36.3-61.2l76.5-40.2c42.1-21.1,88-38.3,101.4-38.3c15.3,0,74.6,80.4,133.9,177.9C3591,55.4,4038.6,885.7,4052,941.2c7.6,30.6,0,47.8-26.8,63.1C3946.8,1046.4,3908.5,1029.2,3841.6,925.8z"/><path d="M7317.5-996.7c-122.4-193.2-124.3-197-72.7-262.1l44-55.5l97.6,132c145.4,200.9,147.3,204.7,99.5,273.6c-22.9,32.5-49.7,59.3-59.3,59.3C7418.8-849.4,7369.1-916.3,7317.5-996.7z"/></g></g>
</svg>