<?xml version="1.0" encoding="utf-8"?>
<!-- Svg Vector Icons : http://www.onlinewebfonts.com/icon -->
<!DOCTYPE svg PUBLIC "-//W3C//DTD SVG 1.1//EN" "http://www.w3.org/Graphics/SVG/1.1/DTD/svg11.dtd">
<svg version="1.1" xmlns="http://www.w3.org/2000/svg" xmlns:xlink="http://www.w3.org/1999/xlink" x="0px" y="0px" viewBox="0 0 1000 1000" enable-background="new 0 0 1000 1000" xml:space="preserve">
<metadata> Svg Vector Icons : http://www.onlinewebfonts.com/icon </metadata>
<g><g transform="translate(0.000000,512.000000) scale(0.100000,-0.100000)"><path d="M2363,5011.8C1244.9,4860.3,357,4020.3,134.5,2907.9c-46-232-46-736.4,0-968.5C345.5,882.7,1158.6,71.5,2215.3-139.5c230.1-46,736.4-46,966.6,0c1056.7,211,1869.9,1024.1,2080.8,2080.8c46,230.1,46,736.4,0,966.6c-211,1052.9-1027.9,1873.7-2067.4,2077C3001.6,5023.3,2549,5038.6,2363,5011.8z M2944.1,4472.9c15.4-15.3,23-95.9,23-237.8v-216.7l109.3-30.7c374-109.3,590.7-372,631-765.2c17.3-163,7.7-166.9-260.8-161.1c-243.6,5.8-234,0-268.5,174.5c-44.1,220.5-211,358.6-431.5,358.6c-312.6,0-464.1-155.3-446.8-458.3c13.4-243.6,130.4-345.2,623.3-531.2c496.7-187.9,721.1-391.2,792.1-719.2c34.5-153.4,15.3-421.9-36.4-560c-86.3-222.5-335.6-421.9-602.2-483.3l-99.7-21.1l-5.7-209c-1.9-115.1-15.3-220.5-26.9-234c-26.8-32.6-343.3-34.5-375.9-1.9c-15.3,15.3-23,92.1-23,220.5c0,141.9-7.7,201.4-23,205.2c-13.4,3.8-82.5,21.1-153.4,36.4c-354.8,82.5-594.5,301.1-677,617.5c-42.2,163-38.4,291.5,7.7,316.4c44.1,23,402.7,24.9,439.2,3.8c13.4-9.6,32.6-65.2,42.2-122.7c47.9-299.2,235.9-433.4,583-414.2c138.1,7.7,176.4,17.3,255.1,65.2c164.9,101.6,234,308.8,170.7,502.5c-55.6,168.8-189.9,260.8-594.5,412.3c-540.8,205.2-774.8,433.4-815.1,799.7c-55.6,500.6,197.5,876.4,663.6,980l101.6,23V4237c0,140,7.7,220.5,23,235.9C2598.9,4503.6,2913.4,4503.6,2944.1,4472.9z"/><path d="M6568.8,4008.8c-492.9-140-909-264.7-924.4-278.1c-17.3-15.4-30.7-38.4-30.7-53.7c0-47.9,1112.3-1587.9,1150.7-1593.7c46-7.7,53.7,9.6,163,322.2c49.9,141.9,92.1,262.7,95.9,264.7c11.5,13.4,366.3-134.2,508.2-212.9c329.9-176.4,573.4-374,719.2-579.2c189.9-264.7,293.4-571.5,310.7-918.6l11.5-211l44.1,101.6c184.1,416.2,258.9,935.9,191.8,1321.4c-78.6,450.7-335.6,861.1-719.2,1150.7c-145.7,111.3-446.8,274.3-619.4,339.5l-90.1,32.6l86.3,241.6c92.1,258.9,97.8,318.4,36.4,324.1C7481.6,4260,7061.6,4148.8,6568.8,4008.8z"/><path d="M6965.8,409c-1118.1-151.5-2006-991.5-2228.5-2103.8c-46-232.1-46-736.4,0-968.5c209-1051,1031.8-1875.6,2071.2-2075.1c1409.6-270.4,2773.2,655.9,3057,2077c46,230.1,46,736.4,0,966.6c-211,1052.9-1028,1873.7-2067.4,2077C7604.4,420.5,7151.8,435.9,6965.8,409z M7991.8-548c141.9-23,398.9-103.6,450.7-141.9c34.5-25,34.5-30.7,0-182.2c-49.9-216.7-59.4-228.2-161.1-176.4c-212.9,109.3-594.5,149.6-836.2,88.2c-178.3-46-408.5-166.9-540.8-285.7c-107.4-97.8-274.2-316.4-274.2-358.6c0-9.6,341.4-17.3,784.4-17.3c498.6,0,790.1-7.7,797.8-19.2c13.4-21.1-61.4-304.9-90.1-339.5c-15.3-19.2-203.3-24.9-820.8-24.9h-799.7l-11.5-86.3c-7.7-47.9-7.7-124.7,0-172.6l11.5-86.3h763.3c450.7,0,767.1-7.7,774.8-17.2c11.5-21.1-63.3-308.8-90.1-341.4c-15.3-19.2-172.6-24.9-669.3-24.9c-364.4,0-650.1-7.7-650.1-17.3c0-42.2,166.9-260.8,274.2-358.6c132.3-118.9,362.5-239.7,540.8-285.8c159.2-40.3,431.5-36.4,607.9,7.7c176.4,46,293.4,103.6,454.5,224.4c88.2,67.1,124.7,84.4,136.2,65.2c21.1-32.6,21.1-377.8,0-433.4c-23-57.5-228.2-163-454.5-232.1c-147.7-44.1-203.3-49.9-437.3-51.8c-310.7,0-444.9,26.9-696.2,143.8c-360.5,166.9-634.8,435.3-803.6,786.3l-72.9,151.5h-262.7c-191.8,0-262.7,5.8-268.5,23c-9.6,26.8,61.4,297.3,86.3,337.5c11.5,15.4,71,23,188,23h170.7v172.6v172.6h-222.5h-224.4l11.5,84.4c7.7,46,26.9,128.5,46,186l34.5,103.5l224.4,5.8l222.5,5.8l32.6,80.5c101.6,257,408.5,619.5,646.3,757.5C7226.6-569.1,7614-488.5,7991.8-548z"/><path d="M1419.4-643.9c-147.7-354.8-205.2-659.7-191.8-1026c11.5-312.6,42.2-446.8,157.3-694.3c101.6-214.8,170.7-316.4,331.8-487.1c207.1-222.5,479.4-404.7,780.6-527.4c84.4-34.5,155.4-71,159.2-80.5c1.9-9.6-34.5-128.5-82.5-264.7c-72.9-209-82.5-249.3-59.4-272.3s161.1,11.5,934,226.3c500.5,140,930.1,266.6,953.1,281.9c28.8,17.2,42.2,40.3,36.4,63.3c-13.4,51.8-1106.6,1572.6-1139.2,1586c-46,17.3-72.9-28.8-168.8-306.8c-49.9-145.8-97.8-266.6-103.5-272.3c-21.1-11.5-372.1,132.3-544.7,226.3c-642.5,351-955.1,817-989.6,1471L1480.8-500L1419.4-643.9z"/></g></g>
</svg>