<?xml version="1.0" encoding="utf-8"?>
<!-- Svg Vector Icons : http://www.onlinewebfonts.com/icon -->
<!DOCTYPE svg PUBLIC "-//W3C//DTD SVG 1.1//EN" "http://www.w3.org/Graphics/SVG/1.1/DTD/svg11.dtd">
<svg version="1.1" xmlns="http://www.w3.org/2000/svg" xmlns:xlink="http://www.w3.org/1999/xlink" x="0px" y="0px" viewBox="0 0 1000 1000" enable-background="new 0 0 1000 1000" xml:space="preserve">
<metadata> Svg Vector Icons : http://www.onlinewebfonts.com/icon </metadata>
<g><g transform="translate(0.000000,511.000000) scale(0.100000,-0.100000)"><path d="M1334.2,4983.7c-6.6-15.3-8.7-2218.1-6.6-4895.6l6.6-4867.2l2605.3-6.6L6547-4790l1063.1,1043.4l1063.1,1043.4v3856.6V5010h-3664C2097.6,5010,1340.7,5003.4,1334.2,4983.7z M8060.7,1258.4v-3139.1l-1087.2-4.4l-1089.4-6.6l-6.6-1130.9l-4.4-1133.1H3915.4H1957.6V120.9v4276.6h3051.6h3051.5V1258.4z M7973.2-2521.6c0-4.4-330.3-330.3-732.8-724.1l-732.8-717.5v724.1v724.1h732.8C7642.9-2515,7973.2-2519.4,7973.2-2521.6z"/><path d="M3593.9,3546.6C3141,3400,2815.1,2907.8,2898.2,2490c83.1-426.6,476.9-794.1,879.4-822.5c575.3-41.6,1124.4,540.3,1025.9,1085C4698.5,3321.2,4107.9,3710.6,3593.9,3546.6z M4024.8,2945c111.6-48.1,164.1-148.8,164.1-319.4c0-170.6-52.5-271.3-164.1-319.4c-146.6-61.3-365.3-26.2-452.8,70c-91.9,102.8-91.9,395.9,0,498.7C3659.5,2971.2,3878.2,3006.2,4024.8,2945z"/><path d="M6004.5,2785.3c-17.5-6.6-542.5-520.6-1165.9-1141.9C3937.3,744.4,3703.2,499.4,3685.7,435.9C3626.7,219.4,3843.2,5,4059.8,66.3c56.9,17.5,334.7,282.2,1185.6,1133.1c612.5,610.3,1126.6,1135.3,1144.1,1168.1C6509.8,2592.8,6251.6,2872.8,6004.5,2785.3z"/><path d="M6032.9,1170.9c-175-48.1-286.6-113.8-426.6-247.2c-242.8-231.9-334.7-441.9-319.4-735c13.1-245,96.3-424.4,288.8-616.9c304.1-304.1,693.4-380.6,1052.2-203.5c358.8,175,605.9,579.7,573.1,934.1C7148.5,858.1,6536,1313.1,6032.9,1170.9z M6365.4,567.2c48.1-13.1,109.4-43.8,133.4-67.8c63.4-56.9,105-214.4,87.5-325.9c-32.8-203.4-131.3-282.2-356.6-282.2c-148.7,0-249.4,50.3-301.9,150.9c-37.2,72.2-43.8,275.6-13.1,358.7C5973.8,554.1,6162,621.9,6365.4,567.2z"/></g></g>
</svg>